
<svg version="1.0" xmlns="http://www.w3.org/2000/svg"
 width="139.000000pt" height="209.000000pt" viewBox="0 0 139.000000 209.000000"
 preserveAspectRatio="xMidYMid meet">
<g transform="translate(0.000000,209.000000) scale(0.100000,-0.100000)"
fill="#000000" stroke="none">
<path d="M588 1510 c-64 -66 -188 -222 -188 -237 0 -5 -10 -19 -22 -33 -26
-29 -106 -159 -130 -210 -52 -114 -68 -153 -91 -225 -42 -129 -50 -194 -37
-299 15 -116 55 -200 129 -273 112 -111 183 -138 356 -138 80 0 114 5 170 25
124 43 233 161 280 302 26 78 23 217 -5 288 -12 30 -25 69 -30 86 -4 17 -20
54 -35 83 -16 28 -26 53 -24 56 54 62 172 186 233 246 74 73 87 99 49 99 -9 0
-83 -68 -165 -150 -126 -128 -151 -149 -162 -137 -8 8 -44 73 -80 145 -36 72
-70 133 -76 137 -5 3 -10 14 -10 23 0 9 -14 46 -31 82 -16 35 -35 87 -41 115
-18 87 -20 87 -90 15z m81 -77 c20 -70 190 -413 218 -439 30 -28 24 -43 -46
-106 l-49 -45 20 -21 21 -20 53 56 c30 30 55 54 57 51 2 -2 20 -47 40 -99 45
-116 67 -201 67 -255 0 -99 -57 -230 -135 -310 -106 -108 -239 -144 -425 -114
-85 14 -149 50 -219 124 -140 150 -164 331 -76 576 24 68 110 253 126 273 11
13 90 130 104 154 17 29 67 94 134 175 57 69 66 76 80 63 9 -8 22 -36 30 -63z
m251 -507 c0 -18 -45 -73 -70 -86 -40 -21 -31 13 14 56 51 48 56 51 56 30z"/>
<path d="M362 1115 c-40 -33 -48 -74 -26 -121 20 -41 72 -69 112 -59 40 10 82
59 82 95 0 94 -99 143 -168 85z m111 -15 c33 -26 41 -63 23 -99 -25 -48 -82
-56 -121 -16 -40 39 -31 96 20 123 29 17 49 14 78 -8z"/>
<path d="M273 881 c-35 -22 -49 -56 -39 -96 7 -29 43 -65 65 -65 9 0 1 9 -16
20 -38 23 -50 59 -33 99 25 61 112 62 145 2 8 -14 14 -21 15 -14 0 22 -45 63
-75 68 -20 4 -41 -1 -62 -14z"/>
<path d="M746 794 c-18 -25 -18 -25 3 -12 15 9 24 9 31 2 8 -8 2 -21 -23 -48
-19 -20 -39 -36 -44 -36 -13 0 -13 32 1 50 6 8 -1 4 -16 -8 l-26 -24 20 -20
20 -20 50 50 50 50 -21 21 c-11 11 -22 21 -23 21 -2 0 -11 -12 -22 -26z"/>
<path d="M391 772 c-8 -18 -19 -32 -25 -32 -7 0 -21 -7 -32 -15 -17 -13 -16
-14 14 -4 34 12 67 50 60 70 -2 7 -10 -2 -17 -19z"/>
<path d="M589 671 c-16 -16 -29 -35 -29 -42 0 -8 8 -2 17 11 22 32 33 40 61
40 13 0 20 4 17 10 -11 18 -36 11 -66 -19z"/>
<path d="M680 636 c10 -27 8 -29 -75 -86 -27 -19 -52 -34 -55 -32 -3 2 -7 -8
-8 -20 -3 -21 0 -20 35 13 21 20 54 46 73 59 19 13 38 29 42 35 13 17 9 43 -7
48 -11 5 -12 1 -5 -17z"/>
<path d="M372 385 c-55 -24 -55 -106 1 -133 35 -17 76 1 95 40 11 23 10 32 -2
56 -21 40 -54 53 -94 37z m62 -31 c19 -18 21 -55 4 -72 -30 -30 -88 -2 -88 43
0 40 54 59 84 29z"/>
</g>
</svg>
